<svg width="96" height="212" viewBox="0 0 96 212" fill="none" xmlns="http://www.w3.org/2000/svg">
<ellipse cx="48" cy="49.6783" rx="48" ry="49.6783" fill="url(#paint0_linear_701_940)"/>
<path d="M33.7149 48.8626C33.9408 48.8626 34.1667 48.7611 34.355 48.5783C36.2941 46.5064 38.8356 45.5517 42.3185 45.5517C42.3373 45.5517 42.375 45.5517 42.3938 45.5517C43.0715 45.5517 43.7869 45.5923 44.5023 45.6126C47.7028 45.7548 51.3174 45.897 54.1225 43.6017L55.3274 44.8408C55.4968 45.0236 55.7228 45.1048 55.9487 45.1048C56.0428 45.1048 56.1181 45.0845 56.2122 45.0642C56.5135 44.9626 56.7582 44.6986 56.8335 44.3533L58.0572 38.7267C58.1325 38.3814 58.0384 38.0361 57.7936 37.7923C57.5489 37.5486 57.2289 37.4673 56.9088 37.5689L51.7881 39.2345C51.4869 39.3361 51.2421 39.6001 51.1668 39.9454C51.0915 40.2908 51.1856 40.6361 51.4304 40.8798L52.767 42.2408C50.5079 43.9064 47.4957 43.7845 44.5776 43.6626C43.8434 43.622 43.1092 43.6017 42.4126 43.6017C42.3938 43.6017 42.3561 43.6017 42.3373 43.6017C38.3462 43.6017 35.4093 44.7392 33.1125 47.197C32.7548 47.5829 32.7548 48.1923 33.0936 48.5783C33.2443 48.7611 33.489 48.8626 33.7149 48.8626ZM55.9298 39.9251L55.4215 42.2611L53.8025 40.6158L55.9298 39.9251Z" fill="white"/>
<path d="M41.7165 38.686C41.8295 38.686 41.9236 38.6656 42.0366 38.625L42.9967 38.2391L43.3544 39.275C43.4862 39.661 43.8439 39.9047 44.2016 39.9047C44.3146 39.9047 44.4087 39.8844 44.5217 39.8438C44.9923 39.661 45.2371 39.0922 45.0488 38.5844L44.6911 37.5485L45.6512 37.1625C46.1219 36.9797 46.3666 36.411 46.1784 35.9031C46.0089 35.3953 45.4818 35.1516 45.0111 35.3344L44.051 35.7203L43.6933 34.6844C43.5239 34.1766 42.9967 33.9328 42.5261 34.1156C42.0554 34.2985 41.8107 34.8672 41.9989 35.375L42.3566 36.411L41.3965 36.7969C40.9258 36.9797 40.6811 37.5485 40.8694 38.0563C41.0012 38.4422 41.34 38.686 41.7165 38.686Z" fill="white"/>
<path d="M44.8231 48.9641C43.3735 48.2532 41.6415 48.9438 40.9825 50.5078C40.6625 51.2594 40.6437 52.1125 40.9072 52.9047C41.1708 53.6969 41.7168 54.3063 42.4133 54.6516C42.7899 54.8344 43.204 54.936 43.6182 54.936C43.9571 54.936 44.3148 54.875 44.6348 54.7328C45.3691 54.4485 45.9338 53.8594 46.2539 53.1078C46.5739 52.3563 46.5928 51.5032 46.3292 50.711C46.0656 49.9391 45.5385 49.3094 44.8231 48.9641ZM44.616 52.2953C44.503 52.5797 44.2771 52.8032 44.0136 52.9047C43.75 53.0063 43.4488 53.0063 43.1852 52.8641C42.9216 52.7422 42.7146 52.4985 42.6204 52.2141C42.5263 51.9297 42.5263 51.6047 42.6581 51.3203C42.8463 50.8938 43.2417 50.6297 43.6559 50.6297C43.8065 50.6297 43.9571 50.6703 44.1077 50.7313C44.3713 50.8532 44.5783 51.0969 44.6725 51.3813C44.7478 51.7063 44.729 52.011 44.616 52.2953Z" fill="white"/>
<path d="M56.6644 35.7407C56.8527 35.9844 57.0974 36.1063 57.3798 36.1063C57.5681 36.1063 57.7751 36.0454 57.9446 35.9032L62.7076 31.8204C63.103 31.4751 63.1594 30.8657 62.8582 30.4391C62.557 30.0126 61.9734 29.9516 61.578 30.2766L57.5116 33.7704L56.1561 31.9626C55.836 31.536 55.2713 31.4751 54.8759 31.8204C54.4806 32.1657 54.4241 32.7751 54.7441 33.2016L56.6644 35.7407Z" fill="white"/>
<path d="M70.2758 26.4172H25.9212C25.4129 26.4172 25.0176 26.8641 25.0176 27.3922C25.0176 27.9204 25.4318 28.3672 25.9212 28.3672H28.0863V58.0641C28.0863 58.6125 28.5004 59.0391 28.9899 59.0391H39.0431L35.2214 72.3032C35.0708 72.811 35.3343 73.3594 35.8238 73.5219C35.918 73.5625 36.0121 73.5625 36.0874 73.5625C36.4827 73.5625 36.8404 73.2985 36.9534 72.8719L40.9446 59.0594H55.2525L59.2436 72.8922C59.3566 73.3188 59.7143 73.5829 60.1097 73.5829C60.2038 73.5829 60.2979 73.5625 60.3732 73.5422C60.8439 73.3797 61.1263 72.8313 60.9757 72.3235L57.1539 59.0594H67.2071C67.7154 59.0594 68.1108 58.6125 68.1108 58.0844V28.3875H70.2758C70.7841 28.3875 71.1795 27.9407 71.1795 27.4125C71.1795 26.8844 70.7653 26.4172 70.2758 26.4172ZM66.3035 57.0891H29.8936V28.3875H66.3035V57.0891Z" fill="white"/>
<defs>
<linearGradient id="paint0_linear_701_940" x1="75.8601" y1="92.6434" x2="18.7972" y2="35.5804" gradientUnits="userSpaceOnUse">
<stop stop-color="#2441BA"/>
<stop offset="1" stop-color="#19776E"/>
</linearGradient>
</defs>
</svg>
