<svg width="96" height="100" viewBox="0 0 96 100" fill="none" xmlns="http://www.w3.org/2000/svg">
<ellipse cx="48" cy="50.1783" rx="48" ry="49.6783" fill="url(#paint0_linear_701_2133)"/>
<path d="M48 53.75C53.1777 53.75 57.375 49.5527 57.375 44.375C57.375 39.1973 53.1777 35 48 35C42.8223 35 38.625 39.1973 38.625 44.375C38.625 49.5527 42.8223 53.75 48 53.75Z" stroke="white" stroke-width="1.5" stroke-linejoin="round"/>
<path d="M54.875 65C60.0527 65 64.25 60.8027 64.25 55.625C64.25 50.4473 60.0527 46.25 54.875 46.25C49.6973 46.25 45.5 50.4473 45.5 55.625C45.5 60.8027 49.6973 65 54.875 65Z" stroke="white" stroke-width="1.5" stroke-linejoin="round"/>
<path d="M41.125 65C46.3027 65 50.5 60.8027 50.5 55.625C50.5 50.4473 46.3027 46.25 41.125 46.25C35.9473 46.25 31.75 50.4473 31.75 55.625C31.75 60.8027 35.9473 65 41.125 65Z" stroke="white" stroke-width="1.5" stroke-linejoin="round"/>
<defs>
<linearGradient id="paint0_linear_701_2133" x1="75.8601" y1="93.1434" x2="18.7972" y2="36.0804" gradientUnits="userSpaceOnUse">
<stop stop-color="#2441BA"/>
<stop offset="1" stop-color="#19776E"/>
</linearGradient>
</defs>
</svg>
