<svg width="96" height="100" viewBox="0 0 96 100" fill="none" xmlns="http://www.w3.org/2000/svg">
<ellipse cx="48" cy="49.6783" rx="48" ry="49.6783" fill="url(#paint0_linear_701_991)"/>
<mask id="path-2-inside-1_701_991" fill="white">
<path d="M48.0002 33.8147C45.8559 33.8147 44.1113 35.7254 44.1113 38.074C44.1113 40.4225 45.8559 42.3332 48.0002 42.3332C50.1446 42.3332 51.8891 40.4225 51.8891 38.074C51.8891 35.7254 50.1446 33.8147 48.0002 33.8147ZM48.0002 41.4814C46.2821 41.4814 44.8891 39.9557 44.8891 38.074C44.8891 36.1922 46.2821 34.6665 48.0002 34.6665C49.7183 34.6665 51.1113 36.1922 51.1113 38.074C51.1113 39.9557 49.7183 41.4814 48.0002 41.4814Z"/>
</mask>
<path d="M48.0002 33.8147C45.8559 33.8147 44.1113 35.7254 44.1113 38.074C44.1113 40.4225 45.8559 42.3332 48.0002 42.3332C50.1446 42.3332 51.8891 40.4225 51.8891 38.074C51.8891 35.7254 50.1446 33.8147 48.0002 33.8147ZM48.0002 41.4814C46.2821 41.4814 44.8891 39.9557 44.8891 38.074C44.8891 36.1922 46.2821 34.6665 48.0002 34.6665C49.7183 34.6665 51.1113 36.1922 51.1113 38.074C51.1113 39.9557 49.7183 41.4814 48.0002 41.4814Z" fill="white"/>
<path d="M48.0002 29.8147C43.312 29.8147 40.1113 33.8665 40.1113 38.074H48.1113C48.1113 37.8927 48.1777 37.7912 48.2056 37.7607C48.2179 37.7472 48.2108 37.7601 48.1716 37.7783C48.1282 37.7985 48.0663 37.8147 48.0002 37.8147V29.8147ZM40.1113 38.074C40.1113 42.2814 43.312 46.3332 48.0002 46.3332V38.3332C48.0663 38.3332 48.1282 38.3494 48.1716 38.3696C48.2108 38.3878 48.2179 38.4007 48.2056 38.3872C48.1777 38.3567 48.1113 38.2552 48.1113 38.074H40.1113ZM48.0002 46.3332C52.6884 46.3332 55.8891 42.2814 55.8891 38.074H47.8891C47.8891 38.2552 47.8227 38.3567 47.7948 38.3872C47.7825 38.4007 47.7896 38.3878 47.8288 38.3696C47.8722 38.3494 47.9341 38.3332 48.0002 38.3332V46.3332ZM55.8891 38.074C55.8891 33.8665 52.6884 29.8147 48.0002 29.8147V37.8147C47.9341 37.8147 47.8722 37.7985 47.8288 37.7783C47.7896 37.7601 47.7825 37.7472 47.7948 37.7607C47.8227 37.7912 47.8891 37.8927 47.8891 38.074H55.8891ZM48.0002 37.4814C48.3703 37.4814 48.6334 37.6538 48.7543 37.7862C48.8697 37.9126 48.8891 38.0249 48.8891 38.074H40.8891C40.8891 41.8146 43.7383 45.4814 48.0002 45.4814V37.4814ZM48.8891 38.074C48.8891 38.123 48.8697 38.2353 48.7543 38.3617C48.6334 38.4941 48.3703 38.6665 48.0002 38.6665V30.6665C43.7383 30.6665 40.8891 34.3333 40.8891 38.074H48.8891ZM48.0002 38.6665C47.6301 38.6665 47.367 38.4941 47.2461 38.3617C47.1307 38.2353 47.1113 38.123 47.1113 38.074H55.1113C55.1113 34.3333 52.2622 30.6665 48.0002 30.6665V38.6665ZM47.1113 38.074C47.1113 38.0249 47.1307 37.9126 47.2461 37.7862C47.367 37.6538 47.6301 37.4814 48.0002 37.4814V45.4814C52.2622 45.4814 55.1113 41.8146 55.1113 38.074H47.1113Z" fill="white" mask="url(#path-2-inside-1_701_991)"/>
<mask id="path-4-inside-2_701_991" fill="white">
<path d="M58.1109 42.3334C58.1109 36.2162 53.585 31.2593 47.9998 31.2593C42.4146 31.2593 37.8887 36.2162 37.8887 42.3334C37.8887 46.6054 40.0991 50.305 43.3331 52.1518V68.7408L47.222 73L52.6664 65.3334L50.3331 62.7778V57.6667L52.6664 55.1111V52.1518C55.9004 50.305 58.1109 46.6054 58.1109 42.3334ZM47.1489 71.7154L46.4442 70.9428V52.5556C46.4442 52.0862 46.7934 51.7037 47.222 51.7037C47.6506 51.7037 47.9998 52.0862 47.9998 52.5556V70.5169L47.1489 71.7154ZM52.3071 51.3971L51.8887 51.6356V52.1518V54.7585L49.7832 57.0644L49.5553 57.314V57.6667V62.7778V63.1305L49.7832 63.3801L51.6304 65.4041L48.7776 69.4222V52.5556C48.7776 51.616 48.0799 50.8519 47.222 50.8519C46.3641 50.8519 45.6664 51.616 45.6664 52.5556V70.0918L44.1109 68.3881V52.1518V51.6356L43.6924 51.3971C40.5922 49.6261 38.6664 46.1531 38.6664 42.3334C38.6664 36.6966 42.8532 32.1111 47.9998 32.1111C53.1463 32.1111 57.3331 36.6966 57.3331 42.3334C57.3331 46.1531 55.4073 49.6261 52.3071 51.3971Z"/>
</mask>
<path d="M58.1109 42.3334C58.1109 36.2162 53.585 31.2593 47.9998 31.2593C42.4146 31.2593 37.8887 36.2162 37.8887 42.3334C37.8887 46.6054 40.0991 50.305 43.3331 52.1518V68.7408L47.222 73L52.6664 65.3334L50.3331 62.7778V57.6667L52.6664 55.1111V52.1518C55.9004 50.305 58.1109 46.6054 58.1109 42.3334ZM47.1489 71.7154L46.4442 70.9428V52.5556C46.4442 52.0862 46.7934 51.7037 47.222 51.7037C47.6506 51.7037 47.9998 52.0862 47.9998 52.5556V70.5169L47.1489 71.7154ZM52.3071 51.3971L51.8887 51.6356V52.1518V54.7585L49.7832 57.0644L49.5553 57.314V57.6667V62.7778V63.1305L49.7832 63.3801L51.6304 65.4041L48.7776 69.4222V52.5556C48.7776 51.616 48.0799 50.8519 47.222 50.8519C46.3641 50.8519 45.6664 51.616 45.6664 52.5556V70.0918L44.1109 68.3881V52.1518V51.6356L43.6924 51.3971C40.5922 49.6261 38.6664 46.1531 38.6664 42.3334C38.6664 36.6966 42.8532 32.1111 47.9998 32.1111C53.1463 32.1111 57.3331 36.6966 57.3331 42.3334C57.3331 46.1531 55.4073 49.6261 52.3071 51.3971Z" fill="white"/>
<path d="M43.3331 52.1518H47.3331V49.8298L45.3167 48.6783L43.3331 52.1518ZM43.3331 68.7408H39.3331V70.2922L40.3792 71.4378L43.3331 68.7408ZM47.222 73L44.2681 75.6971L47.6119 79.3594L50.4833 75.316L47.222 73ZM52.6664 65.3334L55.9278 67.6494L57.7958 65.0189L55.6204 62.6363L52.6664 65.3334ZM50.3331 62.7778H46.3331V64.3292L47.3792 65.4749L50.3331 62.7778ZM50.3331 57.6667L47.3792 54.9696L46.3331 56.1153V57.6667H50.3331ZM52.6664 55.1111L55.6204 57.8082L56.6664 56.6625V55.1111H52.6664ZM52.6664 52.1518L50.6829 48.6783L48.6664 49.8298V52.1518H52.6664ZM47.1489 71.7154L44.1935 74.4109L47.5377 78.0776L50.4105 74.031L47.1489 71.7154ZM46.4442 70.9428H42.4442V72.4929L43.4888 73.6382L46.4442 70.9428ZM47.9998 70.5169L51.2614 72.8324L51.9998 71.7924V70.5169H47.9998ZM52.3071 51.3971L54.288 54.8721L54.2912 54.8703L52.3071 51.3971ZM51.8887 51.6356L49.9078 48.1605L47.8887 49.3114V51.6356H51.8887ZM51.8887 54.7585L54.8426 57.4555L55.8887 56.3099V54.7585H51.8887ZM49.5553 57.314L46.6014 54.6169L45.5553 55.7626V57.314H49.5553ZM49.5553 63.1305H45.5553V64.6819L46.6014 65.8275L49.5553 63.1305ZM49.7832 63.3801L52.7377 60.6836L52.7372 60.683L49.7832 63.3801ZM51.6304 65.4041L54.892 67.7197L56.7592 65.0899L54.585 62.7076L51.6304 65.4041ZM48.7776 69.4222H44.7776V81.9655L52.0391 71.7379L48.7776 69.4222ZM45.6664 70.0918L42.7125 72.7889L49.6664 80.4051V70.0918H45.6664ZM44.1109 68.3881H40.1109V69.9395L41.157 71.0852L44.1109 68.3881ZM44.1109 51.6356H48.1109V49.3114L46.0917 48.1605L44.1109 51.6356ZM43.6924 51.3971L41.7084 54.8703L41.7116 54.8722L43.6924 51.3971ZM62.1109 42.3334C62.1109 34.3573 56.1289 27.2593 47.9998 27.2593V35.2593C51.0412 35.2593 54.1109 38.0751 54.1109 42.3334H62.1109ZM47.9998 27.2593C39.8707 27.2593 33.8887 34.3573 33.8887 42.3334H41.8887C41.8887 38.0751 44.9584 35.2593 47.9998 35.2593V27.2593ZM33.8887 42.3334C33.8887 47.9745 36.8118 53.034 41.3495 55.6253L45.3167 48.6783C43.3864 47.5759 41.8887 45.2362 41.8887 42.3334H33.8887ZM39.3331 52.1518V68.7408H47.3331V52.1518H39.3331ZM40.3792 71.4378L44.2681 75.6971L50.1759 70.3029L46.2871 66.0437L40.3792 71.4378ZM50.4833 75.316L55.9278 67.6494L49.4051 63.0174L43.9607 70.684L50.4833 75.316ZM55.6204 62.6363L53.2871 60.0807L47.3792 65.4749L49.7125 68.0304L55.6204 62.6363ZM54.3331 62.7778V57.6667H46.3331V62.7778H54.3331ZM53.2871 60.3638L55.6204 57.8082L49.7125 52.4141L47.3792 54.9696L53.2871 60.3638ZM56.6664 55.1111V52.1518H48.6664V55.1111H56.6664ZM54.65 55.6253C59.1877 53.034 62.1109 47.9745 62.1109 42.3334H54.1109C54.1109 45.2362 52.6132 47.5759 50.6829 48.6783L54.65 55.6253ZM50.1043 69.02L49.3997 68.2473L43.4888 73.6382L44.1935 74.4109L50.1043 69.02ZM50.4442 70.9428V52.5556H42.4442V70.9428H50.4442ZM50.4442 52.5556C50.4442 53.9451 49.3373 55.7037 47.222 55.7037V47.7037C44.2496 47.7037 42.4442 50.2273 42.4442 52.5556H50.4442ZM47.222 55.7037C45.1067 55.7037 43.9998 53.9451 43.9998 52.5556H51.9998C51.9998 50.2273 50.1944 47.7037 47.222 47.7037V55.7037ZM43.9998 52.5556V70.5169H51.9998V52.5556H43.9998ZM44.7381 68.2013L43.8873 69.3999L50.4105 74.031L51.2614 72.8324L44.7381 68.2013ZM50.3263 47.922L49.9078 48.1605L53.8695 55.1107L54.288 54.8721L50.3263 47.922ZM47.8887 51.6356V52.1518H55.8887V51.6356H47.8887ZM47.8887 52.1518V54.7585H55.8887V52.1518H47.8887ZM48.9347 52.0614L46.8293 54.3673L52.7372 59.7615L54.8426 57.4555L48.9347 52.0614ZM46.8293 54.3673L46.6014 54.6169L52.5093 60.0111L52.7372 59.7615L46.8293 54.3673ZM45.5553 57.314V57.6667H53.5553V57.314H45.5553ZM45.5553 57.6667V62.7778H53.5553V57.6667H45.5553ZM45.5553 62.7778V63.1305H53.5553V62.7778H45.5553ZM46.6014 65.8275L46.8293 66.0771L52.7372 60.683L52.5093 60.4334L46.6014 65.8275ZM46.8287 66.0765L48.6759 68.1005L54.585 62.7076L52.7377 60.6836L46.8287 66.0765ZM48.3689 63.0884L45.516 67.1066L52.0391 71.7379L54.892 67.7197L48.3689 63.0884ZM52.7776 69.4222V52.5556H44.7776V69.4222H52.7776ZM52.7776 52.5556C52.7776 49.7571 50.6237 46.8519 47.222 46.8519V54.8519C45.536 54.8519 44.7776 53.4749 44.7776 52.5556H52.7776ZM47.222 46.8519C43.8203 46.8519 41.6664 49.7571 41.6664 52.5556H49.6664C49.6664 53.4749 48.908 54.8519 47.222 54.8519V46.8519ZM41.6664 52.5556V70.0918H49.6664V52.5556H41.6664ZM48.6204 67.3947L47.0648 65.691L41.157 71.0852L42.7125 72.7889L48.6204 67.3947ZM48.1109 68.3881V52.1518H40.1109V68.3881H48.1109ZM48.1109 52.1518V51.6356H40.1109V52.1518H48.1109ZM46.0917 48.1605L45.6733 47.922L41.7116 54.8722L42.1301 55.1107L46.0917 48.1605ZM45.6765 47.9238C43.926 46.9238 42.6664 44.8403 42.6664 42.3334H34.6664C34.6664 47.4658 37.2585 52.3283 41.7084 54.8703L45.6765 47.9238ZM42.6664 42.3334C42.6664 38.5555 45.3971 36.1111 47.9998 36.1111V28.1111C40.3094 28.1111 34.6664 34.8378 34.6664 42.3334H42.6664ZM47.9998 36.1111C50.6025 36.1111 53.3331 38.5555 53.3331 42.3334H61.3331C61.3331 34.8378 55.6902 28.1111 47.9998 28.1111V36.1111ZM53.3331 42.3334C53.3331 44.8403 52.0736 46.9238 50.323 47.9238L54.2912 54.8703C58.7411 52.3283 61.3331 47.4658 61.3331 42.3334H53.3331Z" fill="white" mask="url(#path-4-inside-2_701_991)"/>
<mask id="path-6-inside-3_701_991" fill="white">
<path d="M41.7778 30.5301L41.3889 29.7924C40.4229 30.4031 39.5666 31.1391 38.8004 31.9544L36.5534 27.8519H29.3333V27H27V29.5556H29.3333V28.7037H36.1132L38.2342 32.5745C37.5226 33.4298 36.9252 34.3736 36.4274 35.3711L34.1944 32.1111H32.4444V31.2593H30.1111V33.8148H32.4444V32.963H33.8056L36.0222 36.2L36.0424 36.183C35.666 37.0638 35.3751 37.9829 35.1667 38.9259H32.6529L31.0973 36.3704H29.3333V35.5185H27V38.0741H29.3333V37.2222H30.6804L32.236 39.7778H34.9971C34.8136 40.8963 34.7552 42.0394 34.8159 43.1852H32.2041L30.6486 46.5926H29.3333V45.7407H27V48.2963H29.3333V47.4444H31.1292L32.6848 44.037H34.8734C35.0764 45.935 35.6232 47.8176 36.5496 49.5741L37.2231 49.1473C33.7861 42.6289 35.8254 34.2936 41.7778 30.5301ZM28.5556 28.7037H27.7778V27.8519H28.5556V28.7037ZM31.6667 32.963H30.8889V32.1111H31.6667V32.963ZM28.5556 37.2222H27.7778V36.3704H28.5556V37.2222ZM28.5556 47.4444H27.7778V46.5926H28.5556V47.4444Z"/>
</mask>
<path d="M41.7778 30.5301L41.3889 29.7924C40.4229 30.4031 39.5666 31.1391 38.8004 31.9544L36.5534 27.8519H29.3333V27H27V29.5556H29.3333V28.7037H36.1132L38.2342 32.5745C37.5226 33.4298 36.9252 34.3736 36.4274 35.3711L34.1944 32.1111H32.4444V31.2593H30.1111V33.8148H32.4444V32.963H33.8056L36.0222 36.2L36.0424 36.183C35.666 37.0638 35.3751 37.9829 35.1667 38.9259H32.6529L31.0973 36.3704H29.3333V35.5185H27V38.0741H29.3333V37.2222H30.6804L32.236 39.7778H34.9971C34.8136 40.8963 34.7552 42.0394 34.8159 43.1852H32.2041L30.6486 46.5926H29.3333V45.7407H27V48.2963H29.3333V47.4444H31.1292L32.6848 44.037H34.8734C35.0764 45.935 35.6232 47.8176 36.5496 49.5741L37.2231 49.1473C33.7861 42.6289 35.8254 34.2936 41.7778 30.5301ZM28.5556 28.7037H27.7778V27.8519H28.5556V28.7037ZM31.6667 32.963H30.8889V32.1111H31.6667V32.963ZM28.5556 37.2222H27.7778V36.3704H28.5556V37.2222ZM28.5556 47.4444H27.7778V46.5926H28.5556V47.4444Z" fill="white"/>
<path d="M41.7778 30.5301L43.9154 33.911L47.0403 31.9352L45.3162 28.6647L41.7778 30.5301ZM41.3889 29.7924L44.9273 27.927L42.9092 24.0987L39.2512 26.4115L41.3889 29.7924ZM38.8004 31.9544L35.2922 33.8759L37.9403 38.7107L41.7153 34.6936L38.8004 31.9544ZM36.5534 27.8519L40.0617 25.9303L38.9233 23.8519H36.5534V27.8519ZM29.3333 27.8519H25.3333V31.8519H29.3333V27.8519ZM29.3333 27H33.3333V23H29.3333V27ZM27 27V23H23V27H27ZM27 29.5556H23V33.5556H27V29.5556ZM29.3333 29.5556V33.5556H33.3333V29.5556H29.3333ZM29.3333 28.7037V24.7037H25.3333V28.7037H29.3333ZM36.1132 28.7037L39.6211 26.7816L38.4826 24.7037H36.1132V28.7037ZM38.2342 32.5745L41.309 35.133L43.0505 33.0401L41.7421 30.6524L38.2342 32.5745ZM36.4274 35.3711L33.1274 37.6316L36.9702 43.2419L40.0066 37.1572L36.4274 35.3711ZM34.1944 32.1111L37.4945 29.8507L36.303 28.1111H34.1944V32.1111ZM32.4444 32.1111H28.4444V36.1111H32.4444V32.1111ZM32.4444 31.2593H36.4444V27.2593H32.4444V31.2593ZM30.1111 31.2593V27.2593H26.1111V31.2593H30.1111ZM30.1111 33.8148H26.1111V37.8148H30.1111V33.8148ZM32.4444 33.8148V37.8148H36.4444V33.8148H32.4444ZM32.4444 32.963V28.963H28.4444V32.963H32.4444ZM33.8056 32.963L37.1059 30.7029L35.9144 28.963H33.8056V32.963ZM36.0222 36.2L32.7219 38.46L35.2193 42.107L38.5995 39.259L36.0222 36.2ZM36.0424 36.183L39.7206 37.7549L33.4651 33.124L36.0424 36.183ZM35.1667 38.9259V42.9259H38.379L39.0724 39.7893L35.1667 38.9259ZM32.6529 38.9259L29.2361 41.0057L30.4049 42.9259H32.6529V38.9259ZM31.0973 36.3704L34.5141 34.2906L33.3453 32.3704H31.0973V36.3704ZM29.3333 36.3704H25.3333V40.3704H29.3333V36.3704ZM29.3333 35.5185H33.3333V31.5185H29.3333V35.5185ZM27 35.5185V31.5185H23V35.5185H27ZM27 38.0741H23V42.0741H27V38.0741ZM29.3333 38.0741V42.0741H33.3333V38.0741H29.3333ZM29.3333 37.2222V33.2222H25.3333V37.2222H29.3333ZM30.6804 37.2222L34.0972 35.1424L32.9284 33.2222H30.6804V37.2222ZM32.236 39.7778L28.8192 41.8576L29.988 43.7778H32.236V39.7778ZM34.9971 39.7778L38.9443 40.4256L39.7071 35.7778H34.9971V39.7778ZM34.8159 43.1852V47.1852H39.0333L38.8103 42.9737L34.8159 43.1852ZM32.2041 43.1852V39.1852H29.6331L28.5654 41.524L32.2041 43.1852ZM30.6486 46.5926V50.5926H33.2196L34.2873 48.2538L30.6486 46.5926ZM29.3333 46.5926H25.3333V50.5926H29.3333V46.5926ZM29.3333 45.7407H33.3333V41.7407H29.3333V45.7407ZM27 45.7407V41.7407H23V45.7407H27ZM27 48.2963H23V52.2963H27V48.2963ZM29.3333 48.2963V52.2963H33.3333V48.2963H29.3333ZM29.3333 47.4444V43.4444H25.3333V47.4444H29.3333ZM31.1292 47.4444V51.4444H33.7002L34.768 49.1056L31.1292 47.4444ZM32.6848 44.037V40.037H30.1138L29.046 42.3759L32.6848 44.037ZM34.8734 44.037L38.8508 43.6116L38.4684 40.037H34.8734V44.037ZM36.5496 49.5741L33.0114 51.44L35.0318 55.2711L38.6905 52.9529L36.5496 49.5741ZM37.2231 49.1473L39.364 52.5261L42.4842 50.5491L40.7614 47.2816L37.2231 49.1473ZM28.5556 28.7037V32.7037H32.5556V28.7037H28.5556ZM27.7778 28.7037H23.7778V32.7037H27.7778V28.7037ZM27.7778 27.8519V23.8519H23.7778V27.8519H27.7778ZM28.5556 27.8519H32.5556V23.8519H28.5556V27.8519ZM31.6667 32.963V36.963H35.6667V32.963H31.6667ZM30.8889 32.963H26.8889V36.963H30.8889V32.963ZM30.8889 32.1111V28.1111H26.8889V32.1111H30.8889ZM31.6667 32.1111H35.6667V28.1111H31.6667V32.1111ZM28.5556 37.2222V41.2222H32.5556V37.2222H28.5556ZM27.7778 37.2222H23.7778V41.2222H27.7778V37.2222ZM27.7778 36.3704V32.3704H23.7778V36.3704H27.7778ZM28.5556 36.3704H32.5556V32.3704H28.5556V36.3704ZM28.5556 47.4444V51.4444H32.5556V47.4444H28.5556ZM27.7778 47.4444H23.7778V51.4444H27.7778V47.4444ZM27.7778 46.5926V42.5926H23.7778V46.5926H27.7778ZM28.5556 46.5926H32.5556V42.5926H28.5556V46.5926ZM45.3162 28.6647L44.9273 27.927L37.8505 31.6577L38.2393 32.3954L45.3162 28.6647ZM39.2512 26.4115C37.9595 27.2282 36.8473 28.1918 35.8856 29.2151L41.7153 34.6936C42.2858 34.0865 42.8862 33.5781 43.5265 33.1733L39.2512 26.4115ZM42.3087 30.0329L40.0617 25.9303L33.0452 29.7734L35.2922 33.8759L42.3087 30.0329ZM36.5534 23.8519H29.3333V31.8519H36.5534V23.8519ZM33.3333 27.8519V27H25.3333V27.8519H33.3333ZM29.3333 23H27V31H29.3333V23ZM23 27V29.5556H31V27H23ZM27 33.5556H29.3333V25.5556H27V33.5556ZM33.3333 29.5556V28.7037H25.3333V29.5556H33.3333ZM29.3333 32.7037H36.1132V24.7037H29.3333V32.7037ZM32.6053 30.6258L34.7263 34.4967L41.7421 30.6524L39.6211 26.7816L32.6053 30.6258ZM35.1595 30.016C34.2265 31.1372 33.4661 32.3471 32.8483 33.5851L40.0066 37.1572C40.3843 36.4001 40.8186 35.7224 41.309 35.133L35.1595 30.016ZM39.7275 33.1107L37.4945 29.8507L30.8944 34.3715L33.1274 37.6316L39.7275 33.1107ZM34.1944 28.1111H32.4444V36.1111H34.1944V28.1111ZM36.4444 32.1111V31.2593H28.4444V32.1111H36.4444ZM32.4444 27.2593H30.1111V35.2593H32.4444V27.2593ZM26.1111 31.2593V33.8148H34.1111V31.2593H26.1111ZM30.1111 37.8148H32.4444V29.8148H30.1111V37.8148ZM36.4444 33.8148V32.963H28.4444V33.8148H36.4444ZM32.4444 36.963H33.8056V28.963H32.4444V36.963ZM30.5052 35.223L32.7219 38.46L39.3226 33.94L37.1059 30.7029L30.5052 35.223ZM38.5995 39.259L38.6198 39.242L33.4651 33.124L33.4449 33.141L38.5995 39.259ZM32.3643 34.611C31.8853 35.7316 31.5204 36.889 31.2609 38.0626L39.0724 39.7893C39.2299 39.0768 39.4467 38.3959 39.7206 37.7549L32.3643 34.611ZM35.1667 34.9259H32.6529V42.9259H35.1667V34.9259ZM36.0697 36.8461L34.5141 34.2906L27.6805 38.4502L29.2361 41.0057L36.0697 36.8461ZM31.0973 32.3704H29.3333V40.3704H31.0973V32.3704ZM33.3333 36.3704V35.5185H25.3333V36.3704H33.3333ZM29.3333 31.5185H27V39.5185H29.3333V31.5185ZM23 35.5185V38.0741H31V35.5185H23ZM27 42.0741H29.3333V34.0741H27V42.0741ZM33.3333 38.0741V37.2222H25.3333V38.0741H33.3333ZM29.3333 41.2222H30.6804V33.2222H29.3333V41.2222ZM27.2637 39.302L28.8192 41.8576L35.6528 37.698L34.0972 35.1424L27.2637 39.302ZM32.236 43.7778H34.9971V35.7778H32.236V43.7778ZM31.0499 39.13C30.8178 40.5444 30.7463 41.976 30.8215 43.3967L38.8103 42.9737C38.7642 42.1029 38.8093 41.2482 38.9443 40.4256L31.0499 39.13ZM34.8159 39.1852H32.2041V47.1852H34.8159V39.1852ZM28.5654 41.524L27.0098 44.9314L34.2873 48.2538L35.8429 44.8464L28.5654 41.524ZM30.6486 42.5926H29.3333V50.5926H30.6486V42.5926ZM33.3333 46.5926V45.7407H25.3333V46.5926H33.3333ZM29.3333 41.7407H27V49.7407H29.3333V41.7407ZM23 45.7407V48.2963H31V45.7407H23ZM27 52.2963H29.3333V44.2963H27V52.2963ZM33.3333 48.2963V47.4444H25.3333V48.2963H33.3333ZM29.3333 51.4444H31.1292V43.4444H29.3333V51.4444ZM34.768 49.1056L36.3235 45.6982L29.046 42.3759L27.4905 45.7833L34.768 49.1056ZM32.6848 48.037H34.8734V40.037H32.6848V48.037ZM30.8961 44.4624C31.1502 46.8375 31.8367 49.2125 33.0114 51.44L40.0877 47.7082C39.4097 46.4226 39.0027 45.0324 38.8508 43.6116L30.8961 44.4624ZM38.6905 52.9529L39.364 52.5261L35.0822 45.7685L34.4087 46.1952L38.6905 52.9529ZM40.7614 47.2816C38.2262 42.4737 39.8545 36.4786 43.9154 33.911L39.6401 27.1492C31.7964 32.1085 29.346 42.7842 33.6848 51.013L40.7614 47.2816ZM28.5556 24.7037H27.7778V32.7037H28.5556V24.7037ZM31.7778 28.7037V27.8519H23.7778V28.7037H31.7778ZM27.7778 31.8519H28.5556V23.8519H27.7778V31.8519ZM24.5556 27.8519V28.7037H32.5556V27.8519H24.5556ZM31.6667 28.963H30.8889V36.963H31.6667V28.963ZM34.8889 32.963V32.1111H26.8889V32.963H34.8889ZM30.8889 36.1111H31.6667V28.1111H30.8889V36.1111ZM27.6667 32.1111V32.963H35.6667V32.1111H27.6667ZM28.5556 33.2222H27.7778V41.2222H28.5556V33.2222ZM31.7778 37.2222V36.3704H23.7778V37.2222H31.7778ZM27.7778 40.3704H28.5556V32.3704H27.7778V40.3704ZM24.5556 36.3704V37.2222H32.5556V36.3704H24.5556ZM28.5556 43.4444H27.7778V51.4444H28.5556V43.4444ZM31.7778 47.4444V46.5926H23.7778V47.4444H31.7778ZM27.7778 50.5926H28.5556V42.5926H27.7778V50.5926ZM24.5556 46.5926V47.4444H32.5556V46.5926H24.5556Z" fill="white" mask="url(#path-6-inside-3_701_991)"/>
<mask id="path-8-inside-4_701_991" fill="white">
<path d="M69.0004 38.926V36.3704H66.6671V37.2223H64.8712L63.3157 40.6297H61.127C60.924 38.7318 60.3772 36.8492 59.4509 35.0918L58.7773 35.5186C62.2143 42.0369 60.175 50.3732 54.2227 54.1358L54.6115 54.8735C55.5674 54.2695 56.416 53.5421 57.1767 52.7371L59.4268 57.6667H66.6671V58.5186H69.0004V55.963H66.6671V56.8149H59.9074L57.7569 52.1041C58.4623 51.2582 59.055 50.3255 59.552 49.339L61.7803 53.4075H63.556V54.2593H65.8893V51.7038H63.556V52.5556H62.2205L60.0008 48.5034L59.9323 48.5485C60.3212 47.6481 60.6199 46.7068 60.8338 45.7416H63.3157L64.8712 49.1491H66.6671V50.0009H69.0004V47.4454H66.6671V48.2972H65.3519L63.7963 44.8898H61.0025C61.1869 43.7713 61.2444 42.6281 61.1845 41.4824H63.7963L65.3519 38.075H66.6671V38.9268H69.0004V38.926ZM67.4449 37.2214H68.2227V38.0733H67.4449V37.2214ZM67.4449 56.8149L68.2227 56.814V57.6659H67.4449V56.8149ZM64.3338 52.5548H65.1115V53.4066H64.3338V52.5548ZM67.4449 48.2964L68.2227 48.2955V49.1474H67.4449V48.2964Z"/>
</mask>
<path d="M69.0004 38.926V36.3704H66.6671V37.2223H64.8712L63.3157 40.6297H61.127C60.924 38.7318 60.3772 36.8492 59.4509 35.0918L58.7773 35.5186C62.2143 42.0369 60.175 50.3732 54.2227 54.1358L54.6115 54.8735C55.5674 54.2695 56.416 53.5421 57.1767 52.7371L59.4268 57.6667H66.6671V58.5186H69.0004V55.963H66.6671V56.8149H59.9074L57.7569 52.1041C58.4623 51.2582 59.055 50.3255 59.552 49.339L61.7803 53.4075H63.556V54.2593H65.8893V51.7038H63.556V52.5556H62.2205L60.0008 48.5034L59.9323 48.5485C60.3212 47.6481 60.6199 46.7068 60.8338 45.7416H63.3157L64.8712 49.1491H66.6671V50.0009H69.0004V47.4454H66.6671V48.2972H65.3519L63.7963 44.8898H61.0025C61.1869 43.7713 61.2444 42.6281 61.1845 41.4824H63.7963L65.3519 38.075H66.6671V38.9268H69.0004V38.926ZM67.4449 37.2214H68.2227V38.0733H67.4449V37.2214ZM67.4449 56.8149L68.2227 56.814V57.6659H67.4449V56.8149ZM64.3338 52.5548H65.1115V53.4066H64.3338V52.5548ZM67.4449 48.2964L68.2227 48.2955V49.1474H67.4449V48.2964Z" fill="white"/>
<path d="M69.0004 36.3704H73.0004V32.3704H69.0004V36.3704ZM66.6671 36.3704V32.3704H62.6671V36.3704H66.6671ZM66.6671 37.2223V41.2223H70.6671V37.2223H66.6671ZM64.8712 37.2223V33.2223H62.3002L61.2325 35.5611L64.8712 37.2223ZM63.3157 40.6297V44.6297H65.8867L66.9544 42.2909L63.3157 40.6297ZM61.127 40.6297L57.1497 41.0551L57.532 44.6297H61.127V40.6297ZM59.4509 35.0918L62.9894 33.2266L60.9693 29.3943L57.31 31.713L59.4509 35.0918ZM58.7773 35.5186L56.6364 32.1397L53.5162 34.1168L55.2391 37.3842L58.7773 35.5186ZM54.2227 54.1358L52.0854 50.7547L48.96 52.7303L50.6842 56.0011L54.2227 54.1358ZM54.6115 54.8735L51.0731 56.7388L53.0906 60.566L56.7481 58.2551L54.6115 54.8735ZM57.1767 52.7371L60.8155 51.0761L58.349 45.6724L54.2693 49.9898L57.1767 52.7371ZM59.4268 57.6667L55.7879 59.3277L56.8556 61.6667H59.4268V57.6667ZM66.6671 57.6667H70.6671V53.6667H66.6671V57.6667ZM66.6671 58.5186H62.6671V62.5186H66.6671V58.5186ZM69.0004 58.5186V62.5186H73.0004V58.5186H69.0004ZM69.0004 55.963H73.0004V51.963H69.0004V55.963ZM66.6671 55.963V51.963H62.6671V55.963H66.6671ZM66.6671 56.8149V60.8149H70.6671V56.8149H66.6671ZM59.9074 56.8149L56.2687 58.476L57.3364 60.8149H59.9074V56.8149ZM57.7569 52.1041L54.685 49.5422L53.0727 51.4754L54.1181 53.7653L57.7569 52.1041ZM59.552 49.339L63.0602 47.4175L59.4042 40.7424L55.9798 47.5392L59.552 49.339ZM61.7803 53.4075L58.2721 55.329L59.4105 57.4075H61.7803V53.4075ZM63.556 53.4075H67.556V49.4075H63.556V53.4075ZM63.556 54.2593H59.556V58.2593H63.556V54.2593ZM65.8893 54.2593V58.2593H69.8893V54.2593H65.8893ZM65.8893 51.7038H69.8893V47.7038H65.8893V51.7038ZM63.556 51.7038V47.7038H59.556V51.7038H63.556ZM63.556 52.5556V56.5556H67.556V52.5556H63.556ZM62.2205 52.5556L58.7124 54.4773L59.8509 56.5556H62.2205V52.5556ZM60.0008 48.5034L63.5089 46.5816L61.4229 42.7735L57.7983 45.1643L60.0008 48.5034ZM59.9323 48.5485L56.2602 46.9625L50.9453 59.2683L62.1348 51.8875L59.9323 48.5485ZM60.8338 45.7416V41.7416H57.6232L56.9285 44.8762L60.8338 45.7416ZM63.3157 45.7416L66.9544 44.0805L65.8867 41.7416H63.3157V45.7416ZM64.8712 49.1491L61.2325 50.8102L62.3002 53.1491H64.8712V49.1491ZM66.6671 49.1491H70.6671V45.1491H66.6671V49.1491ZM66.6671 50.0009H62.6671V54.0009H66.6671V50.0009ZM69.0004 50.0009V54.0009H73.0004V50.0009H69.0004ZM69.0004 47.4454H73.0004V43.4454H69.0004V47.4454ZM66.6671 47.4454V43.4454H62.6671V47.4454H66.6671ZM66.6671 48.2972V52.2972H70.6671V48.2972H66.6671ZM65.3519 48.2972L61.7131 49.9584L62.7809 52.2972H65.3519V48.2972ZM63.7963 44.8898L67.4351 43.2286L66.3673 40.8898H63.7963V44.8898ZM61.0025 44.8898L57.0558 44.2393L56.2894 48.8898H61.0025V44.8898ZM61.1845 41.4824V37.4824H56.97L57.19 41.6912L61.1845 41.4824ZM63.7963 41.4824V45.4824H66.3673L67.4351 43.1436L63.7963 41.4824ZM65.3519 38.075V34.075H62.7809L61.7131 36.4138L65.3519 38.075ZM66.6671 38.075H70.6671V34.075H66.6671V38.075ZM66.6671 38.9268H62.6671V42.9268H66.6671V38.9268ZM69.0004 38.9268V42.9268H73.0004V38.9268H69.0004ZM67.4449 37.2214V33.2214H63.4449V37.2214H67.4449ZM68.2227 37.2214H72.2227V33.2214H68.2227V37.2214ZM68.2227 38.0733V42.0733H72.2227V38.0733H68.2227ZM67.4449 38.0733H63.4449V42.0733H67.4449V38.0733ZM67.4449 56.8149L67.4405 52.8149L63.4449 52.8192V56.8149H67.4449ZM68.2227 56.814H72.2227V52.8096L68.2183 52.814L68.2227 56.814ZM68.2227 57.6659V61.6659H72.2227V57.6659H68.2227ZM67.4449 57.6659H63.4449V61.6659H67.4449V57.6659ZM64.3338 52.5548V48.5548H60.3338V52.5548H64.3338ZM65.1115 52.5548H69.1115V48.5548H65.1115V52.5548ZM65.1115 53.4066V57.4066H69.1115V53.4066H65.1115ZM64.3338 53.4066H60.3338V57.4066H64.3338V53.4066ZM67.4449 48.2964L67.4405 44.2964L63.4449 44.3007V48.2964H67.4449ZM68.2227 48.2955H72.2227V44.2911L68.2183 44.2955L68.2227 48.2955ZM68.2227 49.1474V53.1474H72.2227V49.1474H68.2227ZM67.4449 49.1474H63.4449V53.1474H67.4449V49.1474ZM73.0004 38.926V36.3704H65.0004V38.926H73.0004ZM69.0004 32.3704H66.6671V40.3704H69.0004V32.3704ZM62.6671 36.3704V37.2223H70.6671V36.3704H62.6671ZM66.6671 33.2223H64.8712V41.2223H66.6671V33.2223ZM61.2325 35.5611L59.6769 38.9685L66.9544 42.2909L68.51 38.8834L61.2325 35.5611ZM63.3157 36.6297H61.127V44.6297H63.3157V36.6297ZM65.1043 40.2043C64.8503 37.8291 64.1637 35.4545 62.9894 33.2266L55.9124 36.957C56.5907 38.2439 56.9977 39.6344 57.1497 41.0551L65.1043 40.2043ZM57.31 31.713L56.6364 32.1397L60.9182 38.8974L61.5918 38.4706L57.31 31.713ZM55.2391 37.3842C57.7743 42.1925 56.1457 48.188 52.0854 50.7547L56.36 57.5169C64.2043 52.5583 66.6543 41.8814 62.3156 33.6529L55.2391 37.3842ZM50.6842 56.0011L51.0731 56.7388L58.15 53.0082L57.7611 52.2705L50.6842 56.0011ZM56.7481 58.2551C58.0277 57.4466 59.1301 56.4938 60.084 55.4843L54.2693 49.9898C53.7019 50.5903 53.1071 51.0925 52.475 51.4919L56.7481 58.2551ZM53.5378 54.398L55.7879 59.3277L63.0656 56.0058L60.8155 51.0761L53.5378 54.398ZM59.4268 61.6667H66.6671V53.6667H59.4268V61.6667ZM62.6671 57.6667V58.5186H70.6671V57.6667H62.6671ZM66.6671 62.5186H69.0004V54.5186H66.6671V62.5186ZM73.0004 58.5186V55.963H65.0004V58.5186H73.0004ZM69.0004 51.963H66.6671V59.963H69.0004V51.963ZM62.6671 55.963V56.8149H70.6671V55.963H62.6671ZM66.6671 52.8149H59.9074V60.8149H66.6671V52.8149ZM63.5462 55.1537L61.3956 50.443L54.1181 53.7653L56.2687 58.476L63.5462 55.1537ZM60.8288 54.666C61.7546 53.5559 62.5089 52.3601 63.1242 51.1388L55.9798 47.5392C55.6011 48.2908 55.17 48.9606 54.685 49.5422L60.8288 54.666ZM56.0437 51.2605L58.2721 55.329L65.2886 51.486L63.0602 47.4175L56.0437 51.2605ZM61.7803 57.4075H63.556V49.4075H61.7803V57.4075ZM59.556 53.4075V54.2593H67.556V53.4075H59.556ZM63.556 58.2593H65.8893V50.2593H63.556V58.2593ZM69.8893 54.2593V51.7038H61.8893V54.2593H69.8893ZM65.8893 47.7038H63.556V55.7038H65.8893V47.7038ZM59.556 51.7038V52.5556H67.556V51.7038H59.556ZM63.556 48.5556H62.2205V56.5556H63.556V48.5556ZM65.7287 50.6339L63.5089 46.5816L56.4926 50.4251L58.7124 54.4773L65.7287 50.6339ZM57.7983 45.1643L57.7298 45.2095L62.1348 51.8875L62.2032 51.8424L57.7983 45.1643ZM63.6045 50.1345C64.1 48.9872 64.4739 47.8032 64.739 46.6071L56.9285 44.8762C56.7658 45.6104 56.5424 46.309 56.2602 46.9625L63.6045 50.1345ZM60.8338 49.7416H63.3157V41.7416H60.8338V49.7416ZM59.6769 47.4028L61.2325 50.8102L68.51 47.4879L66.9544 44.0805L59.6769 47.4028ZM64.8712 53.1491H66.6671V45.1491H64.8712V53.1491ZM62.6671 49.1491V50.0009H70.6671V49.1491H62.6671ZM66.6671 54.0009H69.0004V46.0009H66.6671V54.0009ZM73.0004 50.0009V47.4454H65.0004V50.0009H73.0004ZM69.0004 43.4454H66.6671V51.4454H69.0004V43.4454ZM62.6671 47.4454V48.2972H70.6671V47.4454H62.6671ZM66.6671 44.2972H65.3519V52.2972H66.6671V44.2972ZM68.9906 46.636L67.4351 43.2286L60.1576 46.551L61.7131 49.9584L68.9906 46.636ZM63.7963 40.8898H61.0025V48.8898H63.7963V40.8898ZM64.9493 45.5402C65.183 44.1224 65.2532 42.6905 65.1791 41.2736L57.19 41.6912C57.2357 42.5657 57.1908 43.4202 57.0558 44.2393L64.9493 45.5402ZM61.1845 45.4824H63.7963V37.4824H61.1845V45.4824ZM67.4351 43.1436L68.9906 39.7362L61.7131 36.4138L60.1576 39.8212L67.4351 43.1436ZM65.3519 42.075H66.6671V34.075H65.3519V42.075ZM62.6671 38.075V38.9268H70.6671V38.075H62.6671ZM66.6671 42.9268H69.0004V34.9268H66.6671V42.9268ZM73.0004 38.9268V38.926H65.0004V38.9268H73.0004ZM67.4449 41.2214H68.2227V33.2214H67.4449V41.2214ZM64.2227 37.2214V38.0733H72.2227V37.2214H64.2227ZM68.2227 34.0733H67.4449V42.0733H68.2227V34.0733ZM71.4449 38.0733V37.2214H63.4449V38.0733H71.4449ZM67.4493 60.8149L68.227 60.814L68.2183 52.814L67.4405 52.8149L67.4493 60.8149ZM64.2227 56.814V57.6659H72.2227V56.814H64.2227ZM68.2227 53.6659H67.4449V61.6659H68.2227V53.6659ZM71.4449 57.6659V56.8149H63.4449V57.6659H71.4449ZM64.3338 56.5548H65.1115V48.5548H64.3338V56.5548ZM61.1115 52.5548V53.4066H69.1115V52.5548H61.1115ZM65.1115 49.4066H64.3338V57.4066H65.1115V49.4066ZM68.3338 53.4066V52.5548H60.3338V53.4066H68.3338ZM67.4493 52.2964L68.227 52.2955L68.2183 44.2955L67.4405 44.2964L67.4493 52.2964ZM64.2227 48.2955V49.1474H72.2227V48.2955H64.2227ZM68.2227 45.1474H67.4449V53.1474H68.2227V45.1474ZM71.4449 49.1474V48.2964H63.4449V49.1474H71.4449Z" fill="white" mask="url(#path-8-inside-4_701_991)"/>
<defs>
<linearGradient id="paint0_linear_701_991" x1="75.8601" y1="92.6434" x2="18.7972" y2="35.5804" gradientUnits="userSpaceOnUse">
<stop stop-color="#2441BA"/>
<stop offset="1" stop-color="#19776E"/>
</linearGradient>
</defs>
</svg>
