<svg width="96" height="100" viewBox="0 0 96 100" fill="none" xmlns="http://www.w3.org/2000/svg">
<ellipse cx="48" cy="50.1783" rx="48" ry="49.6783" fill="url(#paint0_linear_701_1023)"/>
<path d="M34.9023 41.9418C37.5132 41.9418 39.6541 39.6506 39.6541 36.8149C39.6541 33.9791 37.5306 31.688 34.9023 31.688C32.2741 31.688 30.168 33.9979 30.168 36.8149C30.168 39.6319 32.2915 41.9418 34.9023 41.9418ZM34.9023 33.6411C36.5211 33.6411 37.8613 35.0684 37.8613 36.8337C37.8613 38.599 36.5385 40.0262 34.9023 40.0262C33.2662 40.0262 31.9434 38.599 31.9434 36.8337C31.9434 35.0684 33.2836 33.6411 34.9023 33.6411Z" fill="white"/>
<path d="M40.5242 47.8761C40.0369 47.8385 39.6017 48.2517 39.5669 48.7775L38.8359 60.0267C38.8359 60.0642 38.8185 60.083 38.8185 60.1206L38.1571 71.0692C38.1397 71.4824 37.809 71.8204 37.426 71.8204H32.3784C31.9954 71.8204 31.6647 71.5012 31.6473 71.0692L30.9859 60.1206C30.9685 59.7262 30.7074 59.3694 30.3593 59.2567C30.1678 59.2004 29.6109 59.0126 29.5238 58.9187C29.4542 58.806 29.4194 58.205 29.402 57.9045L28.7928 46.2986V46.2798C29.9242 45.923 31.0381 45.5286 32.1695 45.1342C32.6743 45.7728 33.179 46.3925 33.7012 47.031L34.2408 47.6883C34.4148 47.8949 34.6585 48.0263 34.9196 48.0263C35.1807 48.0263 35.4244 47.9137 35.5984 47.6883L36.225 46.9183C36.7298 46.2986 37.1998 45.7164 37.6697 45.1155L45.4675 47.0122C45.5893 47.0498 45.7286 47.0498 45.8504 47.0122L52.8823 45.4535C53.3697 45.3408 53.683 44.8338 53.5785 44.3079C53.4741 43.7821 53.0041 43.4441 52.5168 43.5567L45.6763 45.0779L37.983 43.1999C37.9482 43.1811 37.896 43.1811 37.8612 43.1811C37.6349 43.1624 36.869 43.1436 36.3991 43.7445C35.9117 44.3643 35.4244 44.9652 34.9196 45.585C34.4148 44.9652 33.9275 44.3643 33.4401 43.7445C32.9876 43.1811 32.4132 42.9933 31.7866 43.2187C30.5856 43.6506 29.3846 44.0638 28.1836 44.4582C27.4177 44.7211 27 45.3408 27 46.1859C27 46.2423 27 46.3925 27 46.4113L27.5918 57.867L27.6092 58.0548C27.7136 59.7262 27.9399 60.3647 29.2453 60.9093L29.8719 71.2195C29.959 72.6467 31.0729 73.7735 32.3958 73.7735H37.4434C38.7663 73.7735 39.8802 72.6467 39.9673 71.2195L40.6287 60.3647C40.6287 60.3271 40.6287 60.3084 40.6461 60.2708L41.3771 48.9278C41.3771 48.3832 41.0116 47.9137 40.5242 47.8761Z" fill="white"/>
<path d="M68.0949 27.5H34.9022C34.4148 27.5 33.9971 27.9319 33.9971 28.4766C33.9971 29.0212 34.3974 29.4531 34.9022 29.4531H67.1898V54.6181H43.3788C42.8914 54.6181 42.4737 55.05 42.4737 55.5947C42.4737 56.1205 42.874 56.5712 43.3788 56.5712H68.0949C68.5822 56.5712 69 56.1393 69 55.5947V28.4766C69 27.9507 68.5996 27.5 68.0949 27.5Z" fill="white"/>
<defs>
<linearGradient id="paint0_linear_701_1023" x1="75.8601" y1="93.1434" x2="18.7972" y2="36.0804" gradientUnits="userSpaceOnUse">
<stop stop-color="#2441BA"/>
<stop offset="1" stop-color="#19776E"/>
</linearGradient>
</defs>
</svg>
