<svg width="96" height="100" viewBox="0 0 96 100" fill="none" xmlns="http://www.w3.org/2000/svg">
<ellipse cx="48" cy="50.1783" rx="48" ry="49.6783" fill="url(#paint0_linear_701_976)"/>
<path d="M69.2234 42.9327C69.2234 40.6032 67.4533 38.6934 65.2943 38.6934C63.1352 38.6934 61.3651 40.6032 61.3651 42.9327C61.3651 43.7092 61.5791 44.4437 61.9292 45.0733L56.6385 50.7817C56.0938 50.4879 55.4909 50.2991 54.849 50.2991C54.032 50.2991 53.2929 50.5719 52.651 51.0126L47.3408 45.3042C47.7687 44.6326 48.0216 43.8141 48.0216 42.9327C48.0216 40.6032 46.2516 38.6934 44.0925 38.6934C41.9334 38.6934 40.1633 40.6032 40.1633 42.9327C40.1633 43.6253 40.3384 44.2758 40.6107 44.8425L34.9893 50.9077C34.4058 50.5299 33.725 50.2991 33.0053 50.2991C30.8462 50.2991 29.0762 52.2089 29.0762 54.5384C29.0762 56.8679 30.8462 58.7777 33.0053 58.7777C35.1644 58.7777 36.9344 56.8679 36.9344 54.5384C36.9344 53.7619 36.7205 53.0273 36.3704 52.3977L41.8945 46.4375C42.5169 46.8992 43.2755 47.172 44.0925 47.172C44.7344 47.172 45.3374 46.9831 45.8625 46.6893L51.3478 52.6076C51.0754 53.1952 50.9004 53.8458 50.9004 54.5384C50.9004 56.8679 52.6704 58.7777 54.8295 58.7777C56.9886 58.7777 58.7587 56.8679 58.7587 54.5384C58.7587 53.6569 58.5058 52.8385 58.0973 52.1669L63.2908 46.5634C63.8743 46.9412 64.5551 47.172 65.2748 47.172C67.4533 47.172 69.2234 45.2622 69.2234 42.9327ZM33.0053 56.6581C31.916 56.6581 31.0213 55.6927 31.0213 54.5174C31.0213 53.3421 31.916 52.3767 33.0053 52.3767C33.5499 52.3767 34.0362 52.6076 34.4058 53.0064C34.7559 53.3841 34.9893 53.9298 34.9893 54.5174C34.9893 55.7136 34.0946 56.6581 33.0053 56.6581ZM44.0925 45.0524C43.0032 45.0524 42.1085 44.087 42.1085 42.9117C42.1085 41.7364 43.0032 40.7711 44.0925 40.7711C45.1817 40.7711 46.0765 41.7364 46.0765 42.9117C46.0765 44.108 45.1817 45.0524 44.0925 45.0524ZM54.849 56.6581C53.7597 56.6581 52.865 55.6927 52.865 54.5174C52.865 53.3421 53.7597 52.3767 54.849 52.3767C55.9382 52.3767 56.833 53.3421 56.833 54.5174C56.8135 55.7136 55.9382 56.6581 54.849 56.6581ZM63.8938 44.4228C63.5437 44.045 63.3102 43.4993 63.3102 42.9117C63.3102 41.7364 64.205 40.7711 65.2943 40.7711C66.3835 40.7711 67.2783 41.7364 67.2783 42.9117C67.2783 44.087 66.3835 45.0524 65.2943 45.0524C64.7496 45.0524 64.2439 44.8215 63.8938 44.4228Z" fill="white"/>
<path d="M25.0504 67.6341C25.6339 67.6341 26.1007 67.1304 26.1007 66.5008V27.6333C26.1007 27.0037 25.6339 26.5 25.0504 26.5C24.4668 26.5 24 27.0037 24 27.6333V66.5008C24 67.1304 24.4668 67.6341 25.0504 67.6341Z" fill="white"/>
<path d="M30.5356 70.9502H25.0504C24.4668 70.9502 24 71.4539 24 72.0835C24 72.7131 24.4668 73.2168 25.0504 73.2168H30.555C31.1386 73.2168 31.6054 72.7131 31.6054 72.0835C31.6054 71.4539 31.1191 70.9502 30.5356 70.9502Z" fill="white"/>
<path d="M40.6889 70.9502H35.2037C34.6201 70.9502 34.1533 71.4539 34.1533 72.0835C34.1533 72.7131 34.6201 73.2168 35.2037 73.2168H40.7084C41.2919 73.2168 41.7587 72.7131 41.7587 72.0835C41.7587 71.4539 41.2724 70.9502 40.6889 70.9502Z" fill="white"/>
<path d="M50.8422 70.9502H45.3375C44.7539 70.9502 44.2871 71.4539 44.2871 72.0835C44.2871 72.7131 44.7539 73.2168 45.3375 73.2168H50.8422C51.4257 73.2168 51.8925 72.7131 51.8925 72.0835C51.8925 71.4539 51.4257 70.9502 50.8422 70.9502Z" fill="white"/>
<path d="M60.9965 70.9502H55.4918C54.9082 70.9502 54.4414 71.4539 54.4414 72.0835C54.4414 72.7131 54.9082 73.2168 55.4918 73.2168H60.9965C61.58 73.2168 62.0468 72.7131 62.0468 72.0835C62.0468 71.4539 61.58 70.9502 60.9965 70.9502Z" fill="white"/>
<path d="M71.1498 70.9502H65.6451C65.0616 70.9502 64.5947 71.4539 64.5947 72.0835C64.5947 72.7131 65.0616 73.2168 65.6451 73.2168H71.1498C71.7333 73.2168 72.2001 72.7131 72.2001 72.0835C72.2001 71.4539 71.7333 70.9502 71.1498 70.9502Z" fill="white"/>
<defs>
<linearGradient id="paint0_linear_701_976" x1="75.8601" y1="93.1434" x2="18.7972" y2="36.0804" gradientUnits="userSpaceOnUse">
<stop stop-color="#2441BA"/>
<stop offset="1" stop-color="#19776E"/>
</linearGradient>
</defs>
</svg>
