<svg width="96" height="100" viewBox="0 0 96 100" fill="none" xmlns="http://www.w3.org/2000/svg">
<ellipse cx="48" cy="50.1783" rx="48" ry="49.6783" fill="url(#paint0_linear_701_1004)"/>
<path d="M39.4347 62.4792H35.8818V72.5417H39.4347V62.4792Z" fill="white"/>
<path d="M47.4288 64.875H43.876V72.5417H47.4288V64.875Z" fill="white"/>
<path d="M62.9728 68.7083H59.4199V72.5416H62.9728V68.7083Z" fill="white"/>
<path d="M55.422 66.7917H51.8691V72.5417H55.422V66.7917Z" fill="white"/>
<path d="M66.3948 61.6614L65.7669 62.3389L67.1987 63.8837C62.7953 63.7299 56.5006 63.1813 49.7466 61.5325C46.1663 60.6585 42.5979 59.5353 39.1401 58.1946L38.8398 59.0969C42.3314 60.4505 45.9353 61.5842 49.5503 62.4673C56.3425 64.1252 62.6714 64.6815 67.1134 64.8397L65.3521 66.4233L65.921 67.1598L68.5856 64.764C68.6815 64.6772 68.7393 64.5522 68.7446 64.417C68.7504 64.2829 68.7033 64.1516 68.6149 64.0567L66.3948 61.6614Z" fill="white"/>
<path d="M41.0234 54.4268L41.0234 37.0365" stroke="white" stroke-width="2.2439"/>
<line x1="53.6456" y1="54.4268" x2="53.6456" y2="37.0365" stroke="white" stroke-width="2.2439"/>
<line x1="41.2269" y1="38.1129" x2="53.5334" y2="53.6402" stroke="white" stroke-width="2.2439"/>
<line x1="37.0967" y1="43.6473" x2="57.2918" y2="43.6473" stroke="white" stroke-width="2.2439"/>
<line x1="37.0967" y1="47.6141" x2="57.2918" y2="47.6141" stroke="white" stroke-width="2.2439"/>
<defs>
<linearGradient id="paint0_linear_701_1004" x1="75.8601" y1="93.1434" x2="18.7972" y2="36.0804" gradientUnits="userSpaceOnUse">
<stop stop-color="#2441BA"/>
<stop offset="1" stop-color="#19776E"/>
</linearGradient>
</defs>
</svg>
