<svg width="96" height="100" viewBox="0 0 96 100" fill="none" xmlns="http://www.w3.org/2000/svg">
<ellipse cx="48" cy="50.1783" rx="48" ry="49.6783" fill="url(#paint0_linear_701_2127)"/>
<path d="M56.3094 55.5562L56.2972 55.5725L56.3116 55.5869L63.6619 62.9372C63.9902 63.3048 64.1655 63.7841 64.1517 64.2767C64.1379 64.7697 63.9359 65.2386 63.5873 65.5873C63.2386 65.9359 62.7697 66.1379 62.2767 66.1517C61.7841 66.1655 61.3048 65.9902 60.9372 65.6619L53.5869 58.3116L53.5725 58.2972L53.5562 58.3094C51.2043 60.0761 48.3416 61.0298 45.4 61.0266C37.8864 61.0266 31.7734 54.9136 31.7734 47.4C31.7734 39.8864 37.8864 33.7734 45.4 33.7734C52.9136 33.7734 59.0266 39.8864 59.0266 47.4C59.0298 50.3416 58.0761 53.2043 56.3094 55.5562ZM35.6266 47.4V47.4C35.6297 49.9911 36.6604 52.4752 38.4926 54.3074C40.3248 56.1396 42.8089 57.1703 45.4 57.1734C47.333 57.1734 49.2226 56.6002 50.8298 55.5263C52.4371 54.4524 53.6898 52.926 54.4295 51.1401C55.1692 49.3543 55.3628 47.3892 54.9856 45.4933C54.6085 43.5974 53.6777 41.856 52.3109 40.4891C50.944 39.1223 49.2026 38.1915 47.3067 37.8144C45.4108 37.4372 43.4457 37.6308 41.6599 38.3705C39.874 39.1103 38.3476 40.3629 37.2737 41.9702C36.1998 43.5774 35.6266 45.467 35.6266 47.4Z" fill="white" stroke="white" stroke-width="0.046875"/>
<defs>
<linearGradient id="paint0_linear_701_2127" x1="75.8601" y1="93.1434" x2="18.7972" y2="36.0804" gradientUnits="userSpaceOnUse">
<stop stop-color="#2441BA"/>
<stop offset="1" stop-color="#19776E"/>
</linearGradient>
</defs>
</svg>
