<svg width="96" height="100" viewBox="0 0 96 100" fill="none" xmlns="http://www.w3.org/2000/svg">
<ellipse cx="48" cy="49.6783" rx="48" ry="49.6783" fill="url(#paint0_linear_701_955)"/>
<path d="M42.0056 50.4287C38.7453 50.4287 36.0928 53.2907 36.0928 56.8083C36.0928 60.326 38.7453 63.1878 42.0056 63.1878C45.2658 63.1878 47.9184 60.326 47.9184 56.8083C47.9184 55.53 47.569 54.2964 46.9083 53.2409C46.7364 52.9667 46.3911 52.8944 46.1367 53.0798C45.8824 53.2653 45.8154 53.6379 45.9873 53.9123C46.5236 54.7688 46.807 55.77 46.807 56.8083C46.807 59.6648 44.6531 61.9888 42.0057 61.9888C39.3581 61.9888 37.2043 59.6648 37.2043 56.8083C37.2043 53.9518 39.3581 51.6279 42.0057 51.6279C42.3125 51.6279 42.5613 51.3595 42.5613 51.0284C42.5613 50.6972 42.3125 50.4287 42.0056 50.4287Z" fill="white"/>
<path d="M52.2781 62.4969L50.825 60.9289C50.6944 60.788 50.6588 60.5703 50.7305 60.384C50.732 60.3806 50.7388 60.3633 50.7401 60.3598C50.815 60.1646 50.9825 60.0384 51.1669 60.0384H53.2221C53.5289 60.0384 53.7778 59.7699 53.7778 59.4388V53.4926C53.7778 53.1615 53.5289 52.893 53.2221 52.893H51.1669C50.9825 52.893 50.815 52.7668 50.7343 52.5569C50.6588 52.361 50.6945 52.1434 50.825 52.0023L52.2781 50.4344C52.4952 50.2003 52.4952 49.8207 52.2781 49.5865L48.3813 45.3819C48.1642 45.1478 47.8124 45.1478 47.5953 45.3819C47.3783 45.6161 47.3783 45.9957 47.5953 46.2299L51.0994 50.0105L50.0392 51.1544C49.5891 51.6399 49.4591 52.3712 49.7133 53.0303C49.9608 53.6752 50.5313 54.0921 51.1669 54.0921H52.6663V58.8392H51.1669C50.5313 58.8392 49.9608 59.2561 49.7173 59.8907C49.7161 59.8938 49.7093 59.9109 49.7082 59.914C49.459 60.5601 49.5889 61.2915 50.0392 61.7769L51.0994 62.9209L47.9883 66.2776L46.9281 65.1336C46.4779 64.6479 45.8001 64.5077 45.1895 64.7819C44.5917 65.0491 44.2053 65.6648 44.2053 66.3504V67.9682H39.8056V66.3503C39.8056 65.6646 39.4193 65.049 38.8094 64.7765C38.2107 64.5078 37.533 64.6479 37.0828 65.1335L36.0226 66.2775L32.9116 62.9208L33.9718 61.7768C34.4218 61.291 34.5518 60.5598 34.2977 59.901C34.0501 59.2561 33.4795 58.8392 32.8441 58.8392H31.3448V54.0921H32.8442C33.4796 54.0921 34.0502 53.6752 34.3028 53.0173C34.5518 52.3713 34.4219 51.64 33.9719 51.1543L32.9116 50.0104L36.0227 46.6538L37.0829 47.7976C37.5329 48.2834 38.2106 48.4236 38.8215 48.1494C39.4193 47.8822 39.8056 47.2665 39.8056 46.581V44.9632H44.2053V46.581C44.2053 47.2667 44.5917 47.8823 45.1895 48.1494C45.3898 48.2389 45.5901 48.3386 45.7846 48.4455C46.0578 48.5957 46.3926 48.4785 46.532 48.1834C46.6713 47.8884 46.5626 47.5274 46.2891 47.3771C46.0688 47.2559 45.8419 47.143 45.6147 47.0414C45.4336 46.9605 45.3166 46.7798 45.3166 46.5809V44.3635C45.3166 44.0323 45.0678 43.7639 44.761 43.7639H39.2499C38.9431 43.7639 38.6943 44.0323 38.6943 44.3635V46.5809C38.6943 46.7798 38.5773 46.9605 38.3826 47.0475C38.2013 47.1291 37.9995 47.0907 37.8689 46.9497L36.4157 45.3818C36.1986 45.1477 35.8467 45.1477 35.6297 45.3818L31.7328 49.5864C31.5157 49.8206 31.5157 50.2003 31.7328 50.4345L33.1859 52.0022C33.3166 52.1433 33.3521 52.3609 33.2785 52.5521C33.2777 52.5539 33.2718 52.5695 33.2709 52.5714C33.196 52.7667 33.0284 52.8929 32.8442 52.8929H30.7891C30.4822 52.8929 30.2334 53.1614 30.2334 53.4925V59.4388C30.2334 59.7699 30.4822 60.0383 30.7891 60.0383H32.8443C33.0285 60.0383 33.196 60.1645 33.2768 60.3745C33.3522 60.5703 33.3166 60.788 33.186 60.9289L31.7328 62.4968C31.5158 62.731 31.5158 63.1107 31.7328 63.3449L35.6298 67.5494C35.8469 67.7835 36.1987 67.7835 36.4158 67.5494L37.8689 65.9814C37.9995 65.8403 38.2013 65.8023 38.3784 65.8816C38.3802 65.8824 38.3946 65.8889 38.3963 65.8898C38.5774 65.9707 38.6943 66.1514 38.6943 66.3503V68.5677C38.6943 68.8989 38.9431 69.1672 39.25 69.1672H44.7611C45.068 69.1672 45.3168 68.8989 45.3168 68.5677V66.3503C45.3168 66.1513 45.4338 65.9706 45.6086 65.8924C45.611 65.8913 45.6262 65.8846 45.6285 65.8835C45.81 65.802 46.0118 65.8406 46.1423 65.9813L47.5955 67.5492C47.6997 67.6617 47.8411 67.7248 47.9885 67.7248C48.1358 67.7248 48.2772 67.6617 48.3814 67.5493L52.2783 63.3448C52.4952 63.1106 52.4952 62.731 52.2781 62.4969Z" fill="white"/>
<path d="M58.002 54.6589C58.002 56.7875 59.607 58.5194 61.58 58.5194C63.553 58.5194 65.158 56.7875 65.158 54.6589C65.158 52.5303 63.553 50.7983 61.58 50.7983C59.607 50.7983 58.002 52.5303 58.002 54.6589ZM64.0466 54.6589C64.0466 56.1264 62.9401 57.3203 61.58 57.3203C60.2199 57.3203 59.1133 56.1264 59.1133 54.6589C59.1133 53.1913 60.2199 51.9975 61.58 51.9975C62.9401 51.9975 64.0466 53.1913 64.0466 54.6589Z" fill="white"/>
<path d="M65.2118 66.2782C65.5186 66.2782 65.7675 66.0098 65.7675 65.6787V64.177C65.7675 61.686 63.8892 59.6594 61.5803 59.6594C59.2715 59.6594 57.3932 61.686 57.3932 64.177V68.0377H50.6279C50.3211 68.0377 50.0723 68.3061 50.0723 68.6373C50.0723 68.9684 50.3211 69.2367 50.6279 69.2367H57.922C57.9311 69.2373 57.9397 69.2396 57.9489 69.2396H65.2117C65.5185 69.2396 65.7674 68.9712 65.7674 68.6402C65.7674 68.309 65.5185 68.0405 65.2117 68.0405H58.5047V64.177C58.5047 62.3472 59.8844 60.8585 61.5803 60.8585C63.2763 60.8585 64.656 62.3472 64.656 64.177V65.6787C64.656 66.0098 64.9049 66.2782 65.2118 66.2782Z" fill="white"/>
<path d="M34.6787 43.3891C34.9856 43.3891 35.2344 43.1207 35.2344 42.7896V32.7079H38.9204C39.2273 32.7079 39.4761 32.4395 39.4761 32.1083C39.4761 31.7772 39.2273 31.5088 38.9204 31.5088H34.6787C34.3718 31.5088 34.123 31.7772 34.123 32.1083V42.7896C34.123 43.1208 34.3718 43.3891 34.6787 43.3891Z" fill="white"/>
<path d="M57.7988 32.7079H61.5667V47.2175C61.5667 47.5487 61.8155 47.8171 62.1224 47.8171C62.4292 47.8171 62.678 47.5486 62.678 47.2175V32.1083C62.678 31.7772 62.4292 31.5088 62.1224 31.5088H57.7988C57.492 31.5088 57.2432 31.7772 57.2432 32.1083C57.2432 32.4395 57.492 32.7079 57.7988 32.7079Z" fill="white"/>
<path d="M42.207 35.29H54.5942C54.901 35.29 55.1498 35.0215 55.1498 34.6904V30.6755C55.1498 30.3444 54.901 30.0759 54.5942 30.0759H42.207C41.9002 30.0759 41.6514 30.3444 41.6514 30.6755V34.6904C41.6514 35.0215 41.9002 35.29 42.207 35.29ZM42.7627 31.275H54.0384V34.0908H42.7627V31.275Z" fill="white"/>
<path d="M42.0059 52.9294C41.6989 52.9294 41.4502 53.1979 41.4502 53.529V56.8083C41.4502 57.1394 41.6989 57.4077 42.0059 57.4077H44.0332C44.3401 57.4077 44.5889 57.1394 44.5889 56.8083C44.5889 56.4771 44.3401 56.2086 44.0332 56.2086H42.5616V53.5291C42.5616 53.1979 42.3128 52.9294 42.0059 52.9294Z" fill="white"/>
<path d="M40.835 40.0084H53.3808C53.6876 40.0084 53.9364 39.7401 53.9364 39.4089C53.9364 39.0778 53.6876 38.8093 53.3808 38.8093H40.835C40.528 38.8093 40.2793 39.0778 40.2793 39.4089C40.2793 39.74 40.528 40.0084 40.835 40.0084Z" fill="white"/>
<path d="M53.3812 43.6482H50.833C50.5262 43.6482 50.2773 43.9166 50.2773 44.2477C50.2773 44.5788 50.5262 44.8473 50.833 44.8473H53.3812C53.688 44.8473 53.9368 44.5788 53.9368 44.2477C53.9368 43.9166 53.688 43.6482 53.3812 43.6482Z" fill="white"/>
<path d="M56.723 40.682C56.8315 40.799 56.9738 40.8575 57.1159 40.8575C57.2581 40.8575 57.4004 40.7989 57.5088 40.6819L59.083 38.9834C59.3 38.7493 59.3 38.3697 59.083 38.1355C58.8659 37.9015 58.5139 37.9014 58.2972 38.1356L57.1159 39.4102L56.6478 38.9052C56.4307 38.6711 56.0787 38.6711 55.862 38.9053C55.645 39.1394 55.645 39.5191 55.862 39.7532L56.723 40.682Z" fill="white"/>
<path d="M56.723 45.5211C56.8315 45.6381 56.9738 45.6967 57.1159 45.6967C57.2581 45.6967 57.4004 45.6381 57.5088 45.5211L59.083 43.8225C59.3 43.5884 59.3 43.2088 59.083 42.9746C58.8659 42.7406 58.5139 42.7405 58.2972 42.9747L57.1159 44.2493L56.6478 43.7444C56.4307 43.5103 56.0787 43.5102 55.862 43.7444C55.645 43.9785 55.645 44.3582 55.862 44.5923L56.723 45.5211Z" fill="white"/>
<defs>
<linearGradient id="paint0_linear_701_955" x1="75.8601" y1="92.6434" x2="18.7972" y2="35.5804" gradientUnits="userSpaceOnUse">
<stop stop-color="#2441BA"/>
<stop offset="1" stop-color="#19776E"/>
</linearGradient>
</defs>
</svg>
