<svg width="88" height="87" viewBox="0 0 88 87" fill="none" xmlns="http://www.w3.org/2000/svg">
<path d="M43.9998 6.04995C41.8516 6.04995 39.7913 6.89544 38.2722 8.40042C36.7532 9.9054 35.8998 11.9466 35.8998 14.075C35.8998 16.2033 36.7532 18.2445 38.2722 19.7495C39.7913 21.2545 41.8516 22.1 43.9998 22.1C46.1481 22.1 48.2083 21.2545 49.7274 19.7495C51.2464 18.2445 52.0998 16.2033 52.0998 14.075C52.0998 11.9466 51.2464 9.9054 49.7274 8.40042C48.2083 6.89544 46.1481 6.04995 43.9998 6.04995ZM30.4998 14.075C30.4998 10.5277 31.9221 7.1257 34.4539 4.6174C36.9856 2.1091 40.4194 0.699951 43.9998 0.699951C47.5802 0.699951 51.014 2.1091 53.5457 4.6174C56.0775 7.1257 57.4998 10.5277 57.4998 14.075C57.4998 17.6222 56.0775 21.0242 53.5457 23.5325C51.014 26.0408 47.5802 27.45 43.9998 27.45C40.4194 27.45 36.9856 26.0408 34.4539 23.5325C31.9221 21.0242 30.4998 17.6222 30.4998 14.075ZM73.6998 11.4C72.2676 11.4 70.8941 11.9636 69.8814 12.9669C68.8687 13.9703 68.2998 15.331 68.2998 16.75C68.2998 18.1689 68.8687 19.5297 69.8814 20.533C70.8941 21.5363 72.2676 22.1 73.6998 22.1C75.132 22.1 76.5055 21.5363 77.5182 20.533C78.5309 19.5297 79.0998 18.1689 79.0998 16.75C79.0998 15.331 78.5309 13.9703 77.5182 12.9669C76.5055 11.9636 75.132 11.4 73.6998 11.4ZM62.8998 16.75C62.8998 13.9121 64.0377 11.1905 66.0631 9.18391C68.0884 7.17727 70.8355 6.04995 73.6998 6.04995C76.5641 6.04995 79.3112 7.17727 81.3366 9.18391C83.3619 11.1905 84.4998 13.9121 84.4998 16.75C84.4998 19.5878 83.3619 22.3094 81.3366 24.316C79.3112 26.3226 76.5641 27.45 73.6998 27.45C70.8355 27.45 68.0884 26.3226 66.0631 24.316C64.0377 22.3094 62.8998 19.5878 62.8998 16.75ZM8.89981 16.75C8.89981 15.331 9.46873 13.9703 10.4814 12.9669C11.4941 11.9636 12.8676 11.4 14.2998 11.4C15.732 11.4 17.1055 11.9636 18.1182 12.9669C19.1309 13.9703 19.6998 15.331 19.6998 16.75C19.6998 18.1689 19.1309 19.5297 18.1182 20.533C17.1055 21.5363 15.732 22.1 14.2998 22.1C12.8676 22.1 11.4941 21.5363 10.4814 20.533C9.46873 19.5297 8.89981 18.1689 8.89981 16.75ZM14.2998 6.04995C11.4355 6.04995 8.68844 7.17727 6.66305 9.18391C4.63766 11.1905 3.4998 13.9121 3.4998 16.75C3.4998 19.5878 4.63766 22.3094 6.66305 24.316C8.68844 26.3226 11.4355 27.45 14.2998 27.45C17.1641 27.45 19.9112 26.3226 21.9366 24.316C23.962 22.3094 25.0998 19.5878 25.0998 16.75C25.0998 13.9121 23.962 11.1905 21.9366 9.18391C19.9112 7.17727 17.1641 6.04995 14.2998 6.04995ZM17.5398 70.2393C16.0777 70.3118 14.6159 70.089 13.2433 69.5845C11.8708 69.08 10.6161 68.3044 9.55544 67.3046C8.49481 66.3048 7.65042 65.1019 7.07357 63.7688C6.49671 62.4357 6.19944 61.0004 6.1998 59.5499V39.4874C6.1998 39.1327 6.34204 38.7925 6.59521 38.5417C6.84839 38.2909 7.19176 38.15 7.5498 38.15H17.0754C17.2914 36.1865 17.9934 34.3621 19.0464 32.7999H7.5498C3.8238 32.7999 0.799805 35.7959 0.799805 39.4874V59.5499C0.799553 61.8404 1.29411 64.1044 2.25025 66.1897C3.20639 68.2751 4.60197 70.1335 6.3432 71.6402C8.08443 73.1469 10.131 74.2669 12.3454 74.925C14.5597 75.5831 16.8906 75.7639 19.1814 75.4555C18.4546 73.7773 17.9045 72.0293 17.5398 70.2393ZM68.8182 75.4555C71.109 75.7639 73.4399 75.5831 75.6543 74.925C77.8686 74.2669 79.9152 73.1469 81.6564 71.6402C83.3976 70.1335 84.7932 68.2751 85.7494 66.1897C86.7055 64.1044 87.2001 61.8404 87.1998 59.5499V39.4874C87.1998 35.7959 84.1758 32.7999 80.4498 32.7999H68.9532C70.0116 34.3621 70.7082 36.1865 70.9242 38.15H80.4498C80.8078 38.15 81.1512 38.2909 81.4044 38.5417C81.6576 38.7925 81.7998 39.1327 81.7998 39.4874V59.5499C81.8002 61.0004 81.5029 62.4357 80.926 63.7688C80.3492 65.1019 79.5048 66.3048 78.4442 67.3046C77.3835 68.3044 76.1288 69.08 74.7563 69.5845C73.3837 70.089 71.9219 70.3118 70.4598 70.2393C70.095 72.0293 69.5449 73.7773 68.8182 75.4555ZM29.1498 32.7999C25.4238 32.7999 22.3998 35.7959 22.3998 39.4874V64.8999C22.3998 70.5756 24.6755 76.0188 28.7263 80.032C32.7771 84.0453 38.2711 86.2999 43.9998 86.2999C49.7285 86.2999 55.2225 84.0453 59.2733 80.032C63.3241 76.0188 65.5998 70.5756 65.5998 64.8999V39.4874C65.5998 35.7959 62.5758 32.7999 58.8498 32.7999H29.1498ZM27.7998 39.4874C27.7998 39.1327 27.942 38.7925 28.1952 38.5417C28.4484 38.2909 28.7918 38.15 29.1498 38.15H58.8498C59.2078 38.15 59.5512 38.2909 59.8044 38.5417C60.0576 38.7925 60.1998 39.1327 60.1998 39.4874V64.8999C60.1998 69.1567 58.493 73.2391 55.4549 76.249C52.4168 79.259 48.2963 80.95 43.9998 80.95C39.7033 80.95 35.5828 79.259 32.5447 76.249C29.5066 73.2391 27.7998 69.1567 27.7998 64.8999V39.4874Z" fill="#92A0DD"/>
</svg>
