<?xml version="1.0" standalone="no"?>
<!DOCTYPE svg PUBLIC "-//W3C//DTD SVG 20010904//EN"
 "http://www.w3.org/TR/2001/REC-SVG-20010904/DTD/svg10.dtd">
<svg version="1.0" xmlns="http://www.w3.org/2000/svg"
 width="88.000000pt" height="88.000000pt" viewBox="0 0 88.000000 88.000000"
 preserveAspectRatio="xMidYMid meet">
<metadata>
Created by potrace 1.14, written by Peter Selinger 2001-2017
</metadata>
<g transform="translate(0.000000,88.000000) scale(0.100000,-0.100000)"
fill="#000000" stroke="none">
<path d="M342 849 c-107 -25 -222 -121 -272 -223 -54 -112 -95 -101 374 -104
l409 -2 -6 29 c-21 102 -112 213 -222 267 -63 31 -85 37 -157 40 -45 2 -103
-2 -126 -7z"/>
<path d="M200 465 c0 -10 -5 -15 -13 -12 -18 7 -40 -7 -43 -27 -3 -22 21 -38
53 -34 25 3 28 6 27 42 0 22 -6 42 -12 44 -7 2 -12 -4 -12 -13z m-11 -54 c-15
-5 -22 6 -14 19 6 9 10 9 16 -1 5 -8 4 -15 -2 -18z"/>
<path d="M499 473 c0 -5 -2 -20 -4 -34 -4 -33 11 -60 24 -40 6 9 11 10 15 2 4
-6 14 -11 22 -11 12 0 13 4 3 22 -9 17 -9 23 0 26 6 2 9 8 5 13 -3 5 -13 5
-25 -1 -16 -9 -19 -7 -19 10 0 18 -19 30 -21 13z"/>
<path d="M56 434 c-19 -40 -14 -54 12 -38 12 8 24 8 40 1 31 -14 35 -5 16 37
-22 46 -46 46 -68 0z m44 -4 c0 -5 -5 -10 -11 -10 -5 0 -7 5 -4 10 3 6 8 10
11 10 2 0 4 -4 4 -10z"/>
<path d="M587 463 c-2 -5 -5 -23 -5 -40 0 -22 4 -33 14 -33 8 0 14 10 14 22 0
21 0 21 15 2 15 -19 15 -19 30 0 15 19 15 19 15 -2 0 -26 20 -30 21 -4 0 9 2
27 5 40 5 30 -31 30 -47 0 l-12 -23 -10 23 c-10 21 -32 30 -40 15z"/>
<path d="M796 453 c-4 -9 -3 -19 1 -22 4 -3 8 -13 8 -21 0 -8 10 -16 23 -18
12 -2 22 1 22 7 0 6 -4 11 -10 11 -5 0 -10 7 -10 16 0 8 5 12 10 9 15 -9 12 4
-4 21 -19 19 -32 18 -40 -3z"/>
<path d="M263 452 c-19 -3 -23 -10 -23 -43 0 -28 4 -39 15 -39 8 0 15 5 15 10
0 6 9 10 20 10 21 0 42 30 32 46 -10 14 -33 21 -59 16z m37 -33 c0 -5 -7 -9
-15 -9 -8 0 -15 7 -15 15 0 9 6 12 15 9 8 -4 15 -10 15 -15z"/>
<path d="M358 452 c-10 -2 -18 -8 -18 -13 0 -6 6 -7 13 -4 6 4 4 0 -7 -9 -23
-19 -13 -36 23 -36 35 0 39 5 34 35 -5 26 -18 34 -45 27z"/>
<path d="M432 449 c-14 -5 -22 -15 -20 -25 4 -24 32 -39 54 -29 18 8 17 9 -4
13 -13 2 -21 9 -19 15 2 7 11 11 21 9 9 -2 16 1 16 6 0 15 -23 20 -48 11z"/>
<path d="M714 442 c-24 -23 1 -50 39 -43 5 1 6 -3 3 -8 -3 -5 -15 -7 -26 -4
-11 3 -20 1 -20 -5 0 -5 9 -12 21 -15 30 -8 57 23 52 59 -4 23 -9 29 -31 29
-14 0 -31 -6 -38 -13z m37 -25 c-13 -13 -26 -3 -16 12 3 6 11 8 17 5 6 -4 6
-10 -1 -17z"/>
<path d="M41 318 c53 -187 241 -320 431 -305 176 14 339 147 373 305 l7 32
-411 0 -410 0 10 -32z"/>
</g>
</svg>
